Coordinates
version=1
nRows=19
nColumns=24
inDegrees=yes

Units are S.I. units (second, meters, Newtons, ...)
Angles are in degrees.

endheader
time	pelvis_tilt	pelvis_list	pelvis_rotation	pelvis_tx	pelvis_ty	pelvis_tz	hip_flexion_r	hip_adduction_r	hip_rotation_r	knee_angle_r	ankle_angle_r	subtalar_angle_r	mtp_angle_r	hip_flexion_l	hip_adduction_l	hip_rotation_l	knee_angle_l	ankle_angle_l	subtalar_angle_l	mtp_angle_l	lumbar_extension	lumbar_bending	lumbar_rotation
      1.96500000	     -6.33720678	     -2.41383685	      0.72682616	      0.09593703	      1.23567127	     -0.83328037	     13.43110649	      9.38967662	      1.25499525	    -12.22609763	      3.69836943	     -5.83132167	      3.38006746	     30.89856416	      4.05630379	     -0.07789497	    -62.88852991	     29.26278368	     -0.86056289	    147.56895897	     -5.54010791	      3.14980960	      3.24617233
      1.97000000	     -6.37738773	     -2.28163039	      0.65850274	      0.10135404	      1.23618790	     -0.83286652	     12.85847746	      9.29327667	      1.34018643	    -11.91575701	      3.92982598	     -5.70955129	      3.30897805	     31.41416683	      4.26449333	     -0.12812387	    -61.91210303	     30.08013347	     -0.61557904	    148.00240753	     -5.53287565	      2.97477703	      3.45694028
      1.97500000	     -6.42393033	     -2.15039162	      0.60095527	      0.10680213	      1.23666634	     -0.83246107	     12.29215406	      9.19901788	      1.45137777	    -11.60965566	      4.14859073	     -5.65277531	      3.22902308	     31.90556511	      4.47416277	     -0.15394627	    -60.84458482	     30.86003976	     -0.40987471	    148.43899367	     -5.50692204	      2.79915278	      3.66559324
      1.98000000	     -6.46609435	     -2.02557025	      0.56138125	      0.11225311	      1.23709669	     -0.83209416	     11.72107879	      9.10609511	      1.57528375	    -11.30292616	      4.35733429	     -5.64408811	      3.13230542	     32.36871343	      4.68514207	     -0.14474337	    -59.70106766	     31.59335637	     -0.24953822	    148.91368976	     -5.48987327	      2.62948220	      3.86060531
      1.98500000	     -6.50668466	     -1.90509797	      0.53737218	      0.11772277	      1.23747958	     -0.83173969	     11.15321122	      9.01705907	      1.71717362	    -11.00937598	      4.56851293	     -5.68157441	      3.02529657	     32.79908044	      4.89691366	     -0.10049655	    -58.47201556	     32.28299966	     -0.14894200	    149.36496966	     -5.46646999	      2.45859500	      4.04524891
      1.99000000	     -6.54671913	     -1.77617934	      0.51704487	      0.12322513	      1.23783767	     -0.83139721	     10.58093837	      8.91636021	      1.88877726	    -10.71358166	      4.76872500	     -5.71688012	      2.94805784	     33.19054045	      5.10962248	     -0.04395970	    -57.14026008	     32.88599769	     -0.11868149	    149.61805307	     -5.44040077	      2.28191823	      4.22259659
      1.99500000	     -6.58555283	     -1.67707276	      0.53094354	      0.12873472	      1.23810208	     -0.83112589	     10.00487021	      8.84253281	      2.04463950	    -10.41454815	      4.94472148	     -5.85658746	      2.77623995	     33.56996706	      5.31307259	      0.06665366	    -55.78546657	     33.53274286	     -0.09559647	    150.33580696	     -5.41541009	      2.14234960	      4.34856521
      2.00000000	     -6.61494501	     -1.55444987	      0.54287381	      0.13426826	      1.23836341	     -0.83084756	      9.42662658	      8.74116705	      2.21704242	    -10.13463055	      5.16106948	     -5.95029544	      2.69793403	     33.88671972	      5.53006490	      0.18606813	    -54.29643052	     34.04112917	     -0.21510944	    150.56649425	     -5.39610288	      1.97123853	      4.48797243
      2.00500000	     -6.64214749	     -1.46015003	      0.58480411	      0.13983208	      1.23856234	     -0.83064583	      8.81922639	      8.66281170	      2.39923447	     -9.80792116	      5.28010760	     -6.11360342	      2.52724575	     34.17657563	      5.73351196	      0.36025720	    -52.76826694	     34.59517083	     -0.30544733	    151.14836672	     -5.38135526	      1.84903914	      4.54780390
      2.01000000	     -6.66677514	     -1.36483720	      0.63556702	      0.14538888	      1.23869892	     -0.83044916	      8.23284007	      8.58425737	      2.57134727	     -9.52805689	      5.46473305	     -6.29441951	      2.38364585	     34.42842261	      5.93767552	      0.57007571	    -51.15992936	     35.09767545	     -0.46739615	    151.66691841	     -5.36570442	      1.71419739	      4.63078469
      2.01500000	     -6.69709098	     -1.26572887	      0.69360589	      0.15096899	      1.23878899	     -0.83028501	      7.65676788	      8.49852710	      2.74500041	     -9.25951453	      5.66046202	     -6.48199239	      2.25338248	     34.64238948	      6.14583193	      0.80968781	    -49.46209064	     35.53497289	     -0.69779279	    152.09957038	     -5.33939546	      1.57782899	      4.70679215
      2.02000000	     -6.71625584	     -1.19122183	      0.76356688	      0.15652402	      1.23882029	     -0.83017721	      7.06678932	      8.43629126	      2.93693288	     -8.98575921	      5.80063784	     -6.69742873	      2.08204828	     34.81134244	      6.33342853	      1.10010045	    -47.71225896	     36.01192898	     -0.90506797	    152.69359549	     -5.33984642	      1.48363843	      4.72219066
      2.02500000	     -6.74197174	     -1.11193081	      0.83918703	      0.16210496	      1.23880153	     -0.83008576	      6.49300730	      8.36719811	      3.10951981	     -8.73254890	      5.97661349	     -6.91705731	      1.93389422	     34.93695582	      6.52001238	      1.41747655	    -45.87460360	     36.43074710	     -1.16100761	    153.25256802	     -5.32578101	      1.38207114	      4.74671454
      2.03000000	     -6.76741101	     -1.04114202	      0.91985390	      0.16769471	      1.23872894	     -0.83003022	      5.92002858	      8.30537274	      3.27439031	     -8.48191454	      6.14624367	     -7.14140837	      1.78406258	     35.01470997	      6.69308378	      1.76684084	    -43.96396453	     36.83340652	     -1.43081973	    153.84644097	     -5.31403922	      1.29452421	      4.75099976
      2.03500000	     -6.79049387	     -0.97736734	      1.00482607	      0.17328202	      1.23859759	     -0.83000009	      5.35285902	      8.25062685	      3.42656143	     -8.24822262	      6.33901495	     -7.37967787	      1.63542322	     35.03862159	      6.85282624	      2.15427030	    -41.98273460	     37.21328858	     -1.68705518	    154.53766790	     -5.30514088	      1.21781083	      4.76383625
      2.04000000	     -6.83124323	     -0.90449529	      1.07264371	      0.17887491	      1.23842756	     -0.82997935	      4.81590693	      8.18401053	      3.59245802	     -8.03125367	      6.51446331	     -7.56905567	      1.53667847	     35.00868560	      7.00353523	      2.55711218	    -39.88015382	     37.49079921	     -2.06510873	    154.96981908	     -5.28235474	      1.13862196	      4.75271375
      2.04500000	     -6.84660026	     -0.86105431	      1.16270027	      0.18448529	      1.23820458	     -0.83000829	      4.24337584	      8.14753148	      3.70641382	     -7.80528458	      6.69337797	     -7.76939992	      1.40484723	     34.90182265	      7.12450242	      3.01538995	    -37.74872041	     37.84370822	     -2.31255670	    155.80003227	     -5.28313532	      1.09431684	      4.71058738
      2.05000000	     -6.88884720	     -0.81523778	      1.21226469	      0.19003893	      1.23791856	     -0.83001825	      3.74047928	      8.11235377	      3.87783356	     -7.64323658	      6.87682633	     -7.96305100	      1.32141425	     34.75730818	      7.21747148	      3.48798168	    -35.50591090	     38.07412565	     -2.72733394	    156.22163426	     -5.27489293	      1.05457979	      4.68047447
      2.05500000	     -6.91031542	     -0.80023958	      1.31499120	      0.19568899	      1.23757893	     -0.83011030	      3.16408996	      8.10063530	      3.91924996	     -7.39557274	      7.01220214	     -8.09787931	      1.23470622	     34.54446051	      7.29296038	      4.01793037	    -33.24627615	     38.33614534	     -3.03891734	    156.93045961	     -5.26820581	      1.04845672	      4.57146875
